<?xml version="1.0" encoding="utf-8"?>
<!-- Generator: Adobe Illustrator 16.0.0, SVG Export Plug-In . SVG Version: 6.00 Build 0)  -->
<!DOCTYPE svg PUBLIC "-//W3C//DTD SVG 1.1//EN" "http://www.w3.org/Graphics/SVG/1.1/DTD/svg11.dtd">
<svg version="1.1" id="Layer_1" xmlns="http://www.w3.org/2000/svg" xmlns:xlink="http://www.w3.org/1999/xlink" x="0px" y="0px"
	 width="394px" height="397px" viewBox="20.021 13.021 394 397" enable-background="new 20.021 13.021 394 397"
	 xml:space="preserve">
<g>
	<g>
		<g>
			<circle id="SVGID_1_" fill="#EDE574" cx="217.521" cy="211.497" r="179.667"/>
		</g>
		<g>
			<g>
				<path fill="#706E6F" d="M217.521,401.164c-104.583,0-189.667-85.084-189.667-189.667c0-104.582,85.084-189.667,189.667-189.667
					c104.583,0,189.668,85.084,189.668,189.667S322.104,401.164,217.521,401.164z"/>
				<circle id="SVGID_2_" fill="#F90B61" cx="217.521" cy="211.497" r="179.667"/>
			</g>
			<g>
				<g>
					<g>
						<defs>
							<circle id="SVGID_3_" cx="217.521" cy="211.497" r="179.667"/>
						</defs>
						<clipPath id="SVGID_5_">
							<use xlink:href="#SVGID_3_"  overflow="visible"/>
						</clipPath>
						<path clip-path="url(#SVGID_5_)" fill="#7EA300" d="M132.103,374.727c2-10.666,6.484-19.713,19-26.666
							c14.667-8.147,138.334-35.334,151-20c12.668,15.332,17.176,35.998,19.254,41.332c2.08,5.334-102.586,40.002-149.254,24.002
							C125.437,377.395,132.103,374.727,132.103,374.727z"/>
					</g>
				</g>
			</g>
		</g>
	</g>
	<g>
		<g>
			<path id="SVGID_4_" fill="#FCD592" d="M268.771,294.246c44.666-16,60-56.667,49.332-108.667c-10.666-52-42.666-60-70.668-65.962
				c-41.032-8.737-116,16.628-116,16.628c-19.333,10-44,50.668-38,74.667s15.333,75.333,54.667,86.666
				c17.84,5.14,35.132,8.214,52.87,8.556c2.391,8.532,2.158,24.056,1.13,26.111c-1.333,2.667-31.333,8-38,11.333
				c0,0,2.667,4,14.667,13.333s32,15.334,60.667,6c27.104-8.825,46.076-24.937,38.07-35.435c-6.271-8.217-42.07-0.565-42.736-3.231
				c-0.445-1.788-0.293-12.872-0.146-20.784C245.577,301.52,256.889,298.503,268.771,294.246z"/>
		</g>
		<g>
			<g>
				<g>
					<g>
						<defs>
							<path id="SVGID_6_" d="M268.771,294.246c44.666-16,60-56.667,49.332-108.667c-10.666-52-42.666-60-70.668-65.962
								c-41.032-8.737-116,16.628-116,16.628c-19.333,10-44,50.668-38,74.667s15.333,75.333,54.667,86.666
								c17.84,5.14,35.132,8.214,52.87,8.556c2.391,8.532,2.158,24.056,1.13,26.111c-1.333,2.667-31.333,8-38,11.333
								c0,0,2.667,4,14.667,13.333s32,15.334,60.667,6c27.104-8.825,46.076-24.937,38.07-35.435
								c-6.271-8.217-42.07-0.565-42.736-3.231c-0.445-1.788-0.293-12.872-0.146-20.784
								C245.577,301.52,256.889,298.503,268.771,294.246z"/>
						</defs>
						<clipPath id="SVGID_7_">
							<use xlink:href="#SVGID_6_"  overflow="visible"/>
						</clipPath>
						<path clip-path="url(#SVGID_7_)" fill="#E8BA7C" d="M232.104,179.579c-16.376-11.551-26.667-17.333-42.667-20
							s-16.667,8.667-15.333,14s-33.663-16.666-42.33-5.333s-24.669,37-14.669,67s28.695,61.605,83.664,63.725
							c63.625,2.448,96.419-17.309,113.599-45.98c2.277-3.81,2.693,40.832-85.174,53.221c-24.506,3.453-12.255,23.453-22.256,31.953
							c-4.182,3.555-55,15.75,28.688,25.91c13.883,1.686-13.672,7.262-22.521,7.507c-1.615,0.045-15.043-2.224-26.915-8.167
							c-7.925-3.968-53.363-13.376-23.086-21.25c45.139-11.738,37.878-28.467,34.586-29.75c-14.393-5.605-35.151-8.555-56.918-15.25
							c-34.072-10.482-39.041-47.47-48.25-78.917c-6.123-20.908-3.658-42.26,12.25-64.888c20-28.446,88-65.779,154-41.779
							c25.959,9.44,51.996,29.334,56.996,47.334c5.002,18,10.395,56.352,5.619,72.667c-4.775,16.314-2.617,12-4.617-9.333
							s-9.334-41.334-15.334-50s-16.666-12-16.666-12s13.668,45.984,10.334,54.334c0,0-23.539-29.732-40.334-45.001
							c-14.668-13.333-25.721-16.22-25.721-16.22s23.053,28.887,23.053,41.638c0,0.56-10.664-2.084-15.33,19.583
							c-1.916,8.899-1.824,30.368-3.336,28.108C217.521,218.913,232.104,179.579,232.104,179.579z"/>
					</g>
				</g>
			</g>
		</g>
	</g>
	<ellipse fill="#E8BA7C" cx="258.77" cy="200.913" rx="26.5" ry="24.5"/>
	<g opacity="0.7">
		<path fill="#3F2610" d="M169.437,272.246c0,0,1.409,0.813,3.874,2.24c2.448,1.447,5.997,3.431,10.363,5.546
			c4.375,2.083,9.607,4.276,15.443,5.766c2.908,0.761,5.966,1.341,9.096,1.642c3.125,0.313,6.33,0.398,9.497,0.072
			c0.795-0.056,1.588-0.121,2.371-0.263c0.785-0.121,1.571-0.226,2.354-0.358c1.541-0.371,3.104-0.64,4.588-1.149
			c3.021-0.854,5.852-2.121,8.537-3.438c1.305-0.732,2.592-1.457,3.828-2.205c1.19-0.813,2.401-1.559,3.508-2.384
			c1.09-0.849,2.149-1.676,3.174-2.475c0.979-0.861,1.926-1.693,2.832-2.491c0.912-0.797,1.686-1.666,2.484-2.43
			c0.788-0.774,1.551-1.5,2.188-2.252c0.66-0.733,1.277-1.424,1.852-2.062c0.582-0.629,1.094-1.225,1.521-1.787
			c1.779-2.216,2.822-3.471,2.822-3.471s-0.895,1.354-2.516,3.707c-0.395,0.598-0.863,1.229-1.402,1.898
			c-0.531,0.68-1.104,1.411-1.718,2.196c-0.594,0.803-1.309,1.586-2.051,2.424c-0.754,0.823-1.506,1.733-2.39,2.594
			c-0.881,0.857-1.801,1.754-2.752,2.679c-0.994,0.879-2.065,1.741-3.147,2.651c-1.104,0.888-2.313,1.692-3.517,2.576
			c-1.235,0.826-2.563,1.582-3.895,2.377c-2.754,1.41-5.654,2.838-8.805,3.729c-1.547,0.545-3.172,0.84-4.775,1.233
			c-0.814,0.146-1.635,0.264-2.453,0.396c-0.815,0.149-1.643,0.229-2.473,0.287c-3.309,0.315-6.641,0.206-9.876-0.146
			c-3.245-0.318-6.379-1.03-9.352-1.861c-2.982-0.813-5.774-1.876-8.369-2.979c-2.604-1.082-4.976-2.306-7.136-3.468
			c-2.164-1.153-4.075-2.342-5.757-3.397c-1.674-1.071-3.116-2.03-4.292-2.834c-1.182-0.797-2.083-1.461-2.71-1.896
			C169.769,272.479,169.437,272.246,169.437,272.246z"/>
	</g>
	<g opacity="0.7">
		<path fill="#3F2610" d="M226.581,222.246c0.185,0.907,0.321,1.821,0.479,2.728c0.191,0.896,0.346,1.783,0.556,2.666
			c0.217,0.881,0.411,1.765,0.672,2.625c0.129,0.435,0.229,0.869,0.379,1.293c0.147,0.424,0.287,0.852,0.422,1.274
			c0.136,0.427,0.313,0.837,0.466,1.255c0.149,0.42,0.321,0.83,0.512,1.233c0.182,0.405,0.336,0.821,0.539,1.216
			c0.196,0.396,0.373,0.804,0.598,1.186c0.422,0.774,0.861,1.539,1.346,2.27c0.23,0.371,0.496,0.718,0.754,1.063
			c0.256,0.332,0.555,0.689,0.797,0.939l0.836,0.855l-0.955,0.635c-3.021,2.005-6.262,3.664-9.639,4.955
			c-3.383,1.273-6.91,2.166-10.488,2.629c-3.579,0.438-7.208,0.472-10.767-0.008c-1.779-0.229-3.54-0.58-5.265-1.057
			c-0.861-0.232-1.716-0.495-2.557-0.793c-0.841-0.297-1.669-0.624-2.49-0.967c0.849,0.271,1.699,0.521,2.559,0.743
			c0.86,0.213,1.722,0.417,2.59,0.586c1.735,0.335,3.488,0.563,5.244,0.69c1.756,0.123,3.516,0.129,5.269,0.047
			c1.752-0.086,3.497-0.279,5.222-0.576c3.455-0.575,6.831-1.562,10.061-2.885c1.617-0.654,3.197-1.399,4.729-2.229
			c0.769-0.415,1.521-0.854,2.267-1.307c0.744-0.455,1.472-0.938,2.19-1.424l-0.118,1.492c-0.408-0.396-0.697-0.744-1.013-1.132
			c-0.299-0.381-0.598-0.763-0.86-1.162c-0.56-0.78-1.021-1.614-1.455-2.464c-0.229-0.417-0.408-0.855-0.608-1.283
			c-0.205-0.431-0.373-0.871-0.545-1.313c-0.173-0.441-0.326-0.891-0.461-1.344c-0.134-0.449-0.294-0.896-0.402-1.353
			c-0.119-0.456-0.229-0.911-0.332-1.37c-0.109-0.455-0.168-0.924-0.256-1.384c-0.068-0.463-0.185-0.918-0.209-1.388l-0.135-1.394
			c-0.101-0.929-0.064-1.873-0.097-2.797C226.434,224.089,226.503,223.169,226.581,222.246z"/>
	</g>
	<path fill="#4F4130" d="M134.103,114.246c-10.667-4-28.667,0-36.667,13.333s-20.667,42.667-22.667,58s1.482,35.604,23.333,64
		c33.833,43.969-5.425-0.188,6.094-56c9.906-48,33.792-40.205,33.792-40.205s20.743,7.518,32.114,15.539
		c6.583,4.643-17.333-22.667-17.333-22.667s23.333-0.666,33.333,2.667s57.907,29.389,66.001,44
		c8.385,15.141-14.252-37.761-35.167-52c-3.645-2.48,32.5,6.667,41.833,16.667c9.334,10,25.334,21.333,34.785,47.937
		c4.809,13.531-1.451-46.603-4.785-59.937c-4.807-19.229,47.52,26.623,29.145,97.11c-11.512,44.14,18.166-38.563,19.521-44.444
		c7.002-30.333-14-88.667-24-98s-64.666-29.333-75.332-26c-10.668,3.333,1.334-19.333-3.334-26.667c-4.666-7.334-0.666,12-23.333,26
		c-22.667,14-22.667-2-18.667-13.333s-17.333,30.667-23.333,32s-6.754-29.754-7.333-37.333c-0.667-8.727,0,25.333-12.667,39.333
		S134.103,114.246,134.103,114.246z"/>
	<circle opacity="0.3" fill="#FC5A3A" enable-background="new    " cx="140.77" cy="255.246" r="22.333"/>
	<circle opacity="0.3" fill="#FC5A3A" enable-background="new    " cx="286.771" cy="245.912" r="22.333"/>
	<ellipse fill="#E8BA7C" cx="158.437" cy="208.246" rx="26.5" ry="24.5"/>
	<g>
		
			<circle opacity="0.5" fill="#FFFFFF" stroke="#3F2610" stroke-width="2" stroke-miterlimit="10" enable-background="new    " cx="158.437" cy="207.246" r="21"/>
		<circle fill="#423030" stroke="#3F2610" stroke-width="2" stroke-miterlimit="10" cx="158.437" cy="207.246" r="7.334"/>
	</g>
	<g>
		
			<circle opacity="0.5" fill="#FFFFFF" stroke="#3F2610" stroke-width="2" stroke-miterlimit="10" enable-background="new    " cx="258.771" cy="200.913" r="21.333"/>
		<circle fill="#423030" stroke="#3F2610" stroke-width="2" stroke-miterlimit="10" cx="259.771" cy="200.579" r="7.667"/>
	</g>
	<g opacity="0.7">
		<path fill="#3F2610" d="M158.437,173.413c0,0-0.572,0.02-1.569,0.02c-0.997-0.002-2.421-0.021-4.116-0.074
			c-1.697-0.029-3.667-0.103-5.768-0.101c-1.05-0.028-2.131,0.031-3.228,0.037c-1.094,0.034-2.207,0.08-3.309,0.187l-1.65,0.142
			c-0.547,0.058-1.083,0.156-1.621,0.229c-1.081,0.133-2.104,0.396-3.12,0.588c-0.491,0.145-0.97,0.299-1.448,0.425
			c-0.238,0.065-0.476,0.131-0.709,0.194c-0.224,0.088-0.444,0.174-0.663,0.261c-0.438,0.17-0.866,0.335-1.279,0.495
			c-0.407,0.174-0.777,0.388-1.147,0.568c-0.363,0.193-0.73,0.354-1.051,0.553c-0.314,0.209-0.613,0.406-0.894,0.593
			c-0.284,0.187-0.552,0.362-0.798,0.524c-0.232,0.178-0.429,0.364-0.617,0.521c-0.747,0.639-1.2,1.005-1.2,1.005
			s0.314-0.466,0.915-1.283c0.153-0.2,0.313-0.436,0.509-0.67c0.218-0.213,0.455-0.444,0.707-0.69
			c0.257-0.248,0.53-0.51,0.818-0.787c0.297-0.269,0.657-0.482,1.011-0.744c0.361-0.247,0.729-0.531,1.133-0.778
			c0.421-0.218,0.854-0.444,1.303-0.676c0.226-0.116,0.454-0.233,0.686-0.353c0.239-0.094,0.482-0.188,0.729-0.285
			c0.491-0.197,1.002-0.373,1.52-0.565c0.528-0.144,1.065-0.289,1.609-0.437l0.824-0.217l0.843-0.145
			c0.565-0.091,1.134-0.205,1.707-0.278l1.729-0.183c1.154-0.086,2.311-0.111,3.443-0.123c1.134,0.002,2.248,0.055,3.319,0.137
			c1.075,0.051,2.103,0.196,3.079,0.307c0.975,0.117,1.89,0.271,2.734,0.412C156.231,172.808,158.437,173.413,158.437,173.413z"/>
	</g>
	<path fill="#635242" d="M131.937,126.413c-8.999-3.5-28.999-0.107-37.499,26.945c-8.5,27.054-12.5,50.555-6,66.555
		s-7.064-23.32,12.967-48.661c20.032-25.34,23.03-30.339,30.532-26.339s6.312,4,9.406-1.5c3.094-5.5,38.595-12,56.595,1.5
		c18.001,13.5,23.501,15.5,23.501,15.5s-18.338-25-28.669-31s70.728,1.482,80.669,28.5c9.94,27.018,4.5-21.777-9-32.639
		c-13.5-10.861,45.5,4.032,52.5,28.084c7,24.054-2-30.445-15-41.445s-35-30.5-60.5-29c-25.5,1.5-32.001,4.5-32.001,4.5
		s15.501,2,18.501,6s-23.001-8-39.501-1s-1,14-1,14s-19.503-5-29.001-4S131.937,126.413,131.937,126.413z"/>
</g>
</svg>
